<svg width="360" height="360" viewBox="0 0 360 360" fill="none" xmlns="http://www.w3.org/2000/svg">
<path d="M64.7465 91.4315C31.5657 102.413 18.728 142.553 39.3781 170.751L72.0773 215.403C75.7155 220.371 78.3744 225.986 79.9118 231.949L94.9822 290.399C103.957 325.209 144.933 340.346 174.383 319.732L222.751 285.877C227.471 282.573 232.742 280.136 238.318 278.682L295.857 263.668C329.039 255.01 344.65 216.949 327.103 187.485L293.181 130.527C291.489 127.685 290.092 124.678 289.011 121.552L267.239 58.5498C256.463 27.3677 219.557 14.2179 191.491 31.561L133.888 67.1567C130.668 69.1467 127.226 70.7529 123.632 71.9423L64.7465 91.4315Z" stroke="#91DC7F" stroke-width="3" stroke-linecap="round" stroke-linejoin="round"/>
<path d="M81.3649 96.787C48.1841 107.769 35.3464 147.908 55.9965 176.107L81.5663 211.023C85.2046 215.991 87.8634 221.606 89.4008 227.569L101.268 273.597C110.244 308.407 151.219 323.544 180.67 302.93L218.671 276.33C223.392 273.026 228.663 270.59 234.238 269.135L279.986 257.198C313.168 248.54 328.778 210.479 311.231 181.015L283.683 134.758C281.991 131.917 280.594 128.909 279.513 125.783L261.7 74.2376C250.924 43.0555 214.017 29.9058 185.952 47.2488L138.799 76.3873C135.578 78.3773 132.136 79.9835 128.542 81.1729L81.3649 96.787Z" stroke="#91DC7F" stroke-width="3" stroke-linecap="round" stroke-linejoin="round"/>
<path d="M35.9053 198.798C20.2082 230.026 39.5136 267.487 74.0545 272.824L128.75 281.276C134.835 282.216 140.686 284.307 145.99 287.436L197.976 318.11C228.937 336.378 268.615 318.108 274.863 282.706L285.125 224.566C286.126 218.892 288.131 213.442 291.044 208.471L321.115 157.168C338.456 127.583 322.581 89.6311 289.339 81.2048L225.077 64.915C221.871 64.1023 218.757 62.9639 215.783 61.5173L155.838 32.3637C126.169 17.9344 90.7744 34.7329 83.1925 66.8415L67.6311 132.743C66.7612 136.427 65.4628 139.997 63.7626 143.379L35.9053 198.798Z" stroke="#91DC7F" stroke-width="3" stroke-linecap="round" stroke-linejoin="round"/>
<g clip-path="url(#clip0)">
<path d="M182.96 158.4C184.77 157.538 185.361 155.001 184.285 152.748C183.208 150.487 180.866 149.349 179.056 150.212C177.246 151.074 176.656 153.61 177.733 155.871C178.811 158.128 181.153 159.266 182.96 158.4Z" fill="#94919E"/>
<path d="M188.384 144.909C190.124 155.8 182.374 163.963 182.374 163.963C182.374 163.963 175.984 153.152 165.239 149.889C186.14 165.173 174.244 184.227 174.244 184.227H180.294C180.296 184.227 194.358 159.957 188.384 144.909Z" fill="#94919E"/>
<path d="M176.588 146.153C176.471 145.979 176.352 145.794 176.233 145.59C175.68 144.635 175.427 143.749 175.427 143.749C175.427 143.749 176.065 144.417 176.618 145.366C176.733 145.568 176.833 145.766 176.925 145.955C177.012 145.5 177.114 144.566 176.673 143.796C176.063 142.741 174.659 142.412 174.659 142.412C174.659 142.412 174.24 143.794 174.85 144.851C175.291 145.621 176.152 146 176.588 146.153Z" fill="#94919E"/>
<path d="M190.464 154.163C190.815 154.465 191.573 155.02 192.458 155.02C193.677 155.02 194.662 153.965 194.662 153.965C194.662 153.965 193.679 152.912 192.458 152.912C191.573 152.912 190.815 153.467 190.464 153.769C190.673 153.754 190.892 153.743 191.128 153.743C192.23 153.743 193.13 153.961 193.13 153.961C193.13 153.961 192.23 154.184 191.128 154.182C190.89 154.192 190.673 154.178 190.464 154.163Z" fill="#94919E"/>
<path d="M186.036 145.369C186.586 144.415 187.227 143.748 187.227 143.748C187.227 143.748 186.972 144.639 186.419 145.594C186.302 145.794 186.184 145.983 186.063 146.156C186.504 146.004 187.363 145.622 187.803 144.858C188.414 143.799 187.999 142.416 187.999 142.416C187.999 142.416 186.591 142.75 185.984 143.801C185.542 144.567 185.64 145.5 185.729 145.96C185.816 145.77 185.917 145.571 186.036 145.369Z" fill="#94919E"/>
<path d="M180.834 139.621C180.834 137.166 181.326 135.179 181.326 135.179C181.326 135.179 181.821 137.17 181.821 139.621C181.821 140.14 181.796 140.631 181.758 141.095C182.434 140.316 183.666 138.627 183.666 136.657C183.666 133.947 181.326 131.752 181.326 131.752C181.326 131.752 178.986 133.947 178.986 136.657C178.986 138.627 180.218 140.314 180.892 141.095C180.858 140.631 180.834 140.142 180.834 139.621Z" fill="#94919E"/>
<path d="M165.167 147.34C166.875 148.325 168.951 148.1 169.964 147.906C169.545 147.71 169.105 147.479 168.658 147.223C166.533 145.998 165.057 144.577 165.057 144.577C165.057 144.577 167.026 145.143 169.151 146.37C169.6 146.63 170.013 146.894 170.398 147.16C170.062 146.183 169.219 144.273 167.509 143.288C165.165 141.931 162.093 142.86 162.093 142.86C162.093 142.86 162.821 145.987 165.167 147.34Z" fill="#94919E"/>
<path d="M197.484 160.593C195.778 159.61 193.702 159.83 192.688 160.025C193.109 160.223 193.547 160.453 193.996 160.71C196.119 161.936 197.597 163.356 197.597 163.356C197.597 163.356 195.629 162.791 193.502 161.565C193.053 161.302 192.639 161.038 192.256 160.772C192.592 161.75 193.436 163.657 195.142 164.643C197.485 165.999 200.56 165.071 200.56 165.071C200.56 165.071 199.827 161.946 197.484 160.593Z" fill="#94919E"/>
<path d="M170.394 160.778C170.009 161.04 169.598 161.304 169.149 161.566C167.024 162.789 165.054 163.361 165.054 163.361C165.054 163.361 166.529 161.938 168.654 160.712C169.105 160.449 169.543 160.229 169.962 160.027C168.951 159.83 166.871 159.606 165.165 160.595C162.819 161.948 162.087 165.073 162.087 165.073C162.087 165.073 165.159 166.001 167.505 164.648C169.215 163.659 170.058 161.751 170.394 160.778Z" fill="#94919E"/>
<path d="M192.258 147.153C192.641 146.891 193.054 146.626 193.507 146.366C195.63 145.139 197.599 144.573 197.599 144.573C197.599 144.573 196.125 145.994 193.998 147.219C193.549 147.479 193.109 147.706 192.694 147.902C193.704 148.098 195.783 148.325 197.485 147.336C199.833 145.981 200.563 142.856 200.563 142.856C200.563 142.856 197.493 141.929 195.149 143.284C193.438 144.269 192.592 146.179 192.258 147.153Z" fill="#94919E"/>
<path d="M172.195 139.314C171.844 138.799 171.487 138.244 171.138 137.64C169.492 134.794 168.732 132.152 168.732 132.152C168.732 132.152 170.638 134.13 172.281 136.983C172.63 137.583 172.931 138.17 173.198 138.734C173.463 137.378 173.763 134.594 172.442 132.307C170.626 129.161 166.437 128.18 166.437 128.18C166.437 128.18 165.193 132.298 167.009 135.441C168.33 137.731 170.892 138.861 172.195 139.314Z" fill="#94919E"/>
<path d="M190.46 168.62C190.811 169.136 191.171 169.689 191.518 170.291C193.166 173.148 193.924 175.782 193.924 175.782C193.924 175.782 192.018 173.802 190.371 170.953C190.024 170.349 189.722 169.762 189.454 169.202C189.195 170.559 188.893 173.336 190.213 175.625C192.03 178.769 196.217 179.754 196.217 179.754C196.217 179.754 197.467 175.633 195.649 172.489C194.325 170.202 191.764 169.072 190.46 168.62Z" fill="#94919E"/>
<path d="M162.093 154.629C158.804 154.629 156.137 153.965 156.137 153.965C156.137 153.965 158.804 153.301 162.093 153.301C162.791 153.301 163.45 153.339 164.071 153.384C163.027 152.478 160.766 150.825 158.121 150.825C154.492 150.827 151.548 153.965 151.548 153.965C151.548 153.965 154.493 157.105 158.121 157.103C160.764 157.103 163.025 155.452 164.069 154.548C163.448 154.596 162.787 154.629 162.093 154.629Z" fill="#94919E"/>
<path d="M204.532 150.833C201.89 150.833 199.629 152.478 198.584 153.388C199.206 153.341 199.867 153.305 200.559 153.307C203.851 153.307 206.515 153.969 206.515 153.969C206.515 153.969 203.851 154.633 200.563 154.633C199.867 154.633 199.206 154.597 198.584 154.552C199.627 155.456 201.89 157.107 204.532 157.107C208.163 157.107 211.103 153.973 211.103 153.973C211.103 153.973 208.159 150.829 204.532 150.833Z" fill="#94919E"/>
<path d="M172.283 170.955C170.638 173.804 168.732 175.784 168.732 175.784C168.732 175.784 169.49 173.142 171.136 170.292C171.487 169.692 171.843 169.139 172.196 168.619C170.89 169.071 168.328 170.204 167.007 172.493C165.19 175.637 166.435 179.758 166.435 179.758C166.435 179.758 170.626 178.777 172.442 175.633C173.765 173.344 173.464 170.558 173.202 169.205C172.929 169.764 172.629 170.345 172.283 170.955Z" fill="#94919E"/>
<path d="M190.371 136.978C192.015 134.128 193.921 132.15 193.921 132.15C193.921 132.15 193.162 134.79 191.515 137.638C191.167 138.236 190.811 138.795 190.46 139.31C191.764 138.859 194.326 137.727 195.645 135.44C197.463 132.296 196.217 128.172 196.217 128.172C196.217 128.172 192.03 129.156 190.213 132.299C188.886 134.589 189.188 137.372 189.45 138.727C189.722 138.17 190.02 137.583 190.371 136.978Z" fill="#94919E"/>
</g>
<line x1="135.798" y1="103.09" x2="224.061" y2="103.09" stroke="#91DC7F" stroke-width="2" stroke-linecap="round"/>
<line x1="135.798" y1="114.256" x2="224.061" y2="114.256" stroke="#91DC7F" stroke-width="2" stroke-linecap="round"/>
<line x1="135.798" y1="245.464" x2="224.061" y2="245.464" stroke="#91DC7F" stroke-width="2" stroke-linecap="round"/>
<line x1="135.798" y1="254.769" x2="224.061" y2="254.769" stroke="#91DC7F" stroke-width="2" stroke-linecap="round"/>
<path d="M117.184 226.01V227.214H95.2877V226.01H98.0037V207.642H104.724C108.233 207.642 110.93 208.501 112.816 210.218C114.701 211.917 115.644 214.315 115.644 217.414C115.644 221.577 114.001 224.442 110.716 226.01H117.184ZM112.312 217.414C112.312 212.934 109.745 210.694 104.612 210.694H101.308V224.106H104.976C107.346 224.106 109.157 223.546 110.408 222.426C111.677 221.287 112.312 219.617 112.312 217.414ZM138.274 226.01V227.214H132.226L127.55 220.634H123.21V227.214H117.19V226.01H119.906V207.642H127.186C130.173 207.642 132.31 208.146 133.598 209.154C134.886 210.162 135.53 211.777 135.53 213.998C135.53 217.227 134.121 219.262 131.302 220.102L135.558 226.01H138.274ZM127.326 217.638C129.193 217.638 130.462 217.349 131.134 216.77C131.806 216.191 132.142 215.267 132.142 213.998C132.142 212.71 131.797 211.833 131.106 211.366C130.415 210.881 129.183 210.638 127.41 210.638H123.21V217.638H127.326ZM145.373 226.01V227.214H137.561V226.01H139.997C139.586 225.637 139.381 225.151 139.381 224.554C139.381 223.938 139.577 223.434 139.969 223.042C140.38 222.631 140.874 222.426 141.453 222.426C142.032 222.426 142.526 222.631 142.937 223.042C143.348 223.434 143.553 223.929 143.553 224.526C143.553 225.123 143.338 225.618 142.909 226.01H145.373ZM153.053 226.01V227.214H145.381V226.01H153.053ZM174.821 226.01H172.105V207.642H168.801V216.126H159.085V207.642H155.781V227.214H159.085V219.206H168.801V227.214H174.821V226.01ZM155.781 226.01V227.214H153.065V226.01H155.781ZM177.547 226.01V207.642H191.295V210.75H180.851V215.93H190.231V218.87H180.851V224.106H191.631V226.01H194.347V227.214H174.831V226.01H177.547ZM216.643 226.01V227.214H210.399L208.439 222.762H198.639L196.679 227.214H190.435V226.01H193.683L201.775 207.642H205.303L213.395 226.01H216.643ZM207.095 219.71L203.539 211.646L199.983 219.71H207.095ZM231.6 226.01V227.214H213.932V226.01H216.648V207.642H219.952V224.078H228.884V226.01H231.6ZM244.68 226.01V227.214H227.768V226.01H234.572V210.666H228.636V207.642H243.812V210.666H237.876V226.01H244.68ZM266.423 226.01H263.707V207.642H260.403V216.126H250.687V207.642H247.383V227.214H250.687V219.206H260.403V227.214H266.423V226.01ZM247.383 226.01V227.214H244.667V226.01H247.383Z" fill="#94919E"/>
<defs>
<clipPath id="clip0">
<rect width="59.555" height="59.555" fill="white" transform="translate(151.548 126.423)"/>
</clipPath>
</defs>
</svg>
