<svg width="194" height="194" viewBox="0 0 194 194" fill="none" xmlns="http://www.w3.org/2000/svg">
<path d="M97.222 186.124C146.274 186.124 186.039 146.359 186.039 97.307C186.039 48.255 146.274 8.48999 97.222 8.48999C48.17 8.48999 8.40509 48.255 8.40509 97.307C8.40509 146.359 48.17 186.124 97.222 186.124Z" fill="#C4C4C4" stroke="white" stroke-width="15"/>
<path d="M97.222 187.381C146.969 187.381 187.296 147.053 187.296 97.307C187.296 47.56 146.969 7.23303 97.222 7.23303C47.476 7.23303 7.14801 47.56 7.14801 97.307C7.14801 147.053 47.476 187.381 97.222 187.381Z" fill="#F1F5F2"/>
<path d="M162.871 149.925C158.946 146.824 154.164 144.591 148.976 143.509L124.243 138.548C121.649 138.052 119.777 135.729 119.777 133.023V127.352C121.367 125.119 122.867 122.154 124.435 119.053C125.653 116.651 127.491 113.032 128.405 112.096C133.413 107.068 138.251 101.419 139.751 94.135C141.149 87.302 139.773 83.717 138.161 80.83C138.161 73.625 137.935 64.605 136.232 58.043C136.029 49.158 134.416 44.163 130.356 39.788C127.491 36.688 123.273 35.966 119.879 35.391C118.548 35.166 116.71 34.85 116.033 34.489C110.022 31.242 104.078 29.652 96.984 29.528C82.131 30.137 63.871 39.586 57.759 56.431C55.864 61.561 56.056 69.983 56.214 76.749L56.067 80.819C54.612 83.66 53.18 87.268 54.59 94.124C56.078 101.419 60.917 107.079 66.014 112.175C66.849 113.032 68.732 116.685 69.973 119.098C71.563 122.188 73.074 125.142 74.665 127.363V133.034C74.665 135.729 72.781 138.052 70.176 138.559L45.42 143.52C40.266 144.614 35.484 146.824 31.571 149.925C30.353 150.905 29.586 152.337 29.462 153.893C29.338 155.449 29.857 156.972 30.905 158.133C47.755 176.714 71.924 187.381 97.221 187.381C122.518 187.381 146.698 176.726 163.536 158.133C164.585 156.972 165.115 155.438 164.98 153.882C164.856 152.326 164.089 150.894 162.871 149.925Z" fill="#94919E"/>
</svg>
